<svg width="164" height="46" viewBox="0 0 164 46" fill="none" xmlns="http://www.w3.org/2000/svg">
<path d="M119.968 5.88965C119.739 5.35652 119.397 4.88033 118.966 4.49482C118.508 4.08981 117.972 3.78511 117.391 3.60018C116.72 3.38497 116.019 3.28012 115.315 3.28966H114.2C112.848 4.82381 111.494 6.35963 110.137 7.89713V17.906H112.428V12.2461H115.06C115.753 12.2509 116.443 12.1524 117.107 11.9541C117.712 11.7751 118.279 11.4836 118.777 11.0947C119.256 10.7167 119.641 10.2331 119.904 9.68138C120.191 9.06869 120.333 8.39783 120.32 7.72089C120.329 7.09259 120.209 6.46912 119.968 5.88965ZM117.207 9.49842C116.7 9.93483 116.006 10.153 115.126 10.153H112.436V5.38107H115.126C115.993 5.38107 116.683 5.58025 117.199 5.97861C117.714 6.37698 117.972 6.97284 117.972 7.76621C117.984 8.09442 117.922 8.42108 117.789 8.72127C117.656 9.02147 117.457 9.28728 117.207 9.49842Z" fill="#213469"/>
<path d="M131.187 10.4885C130.66 11.7463 129.659 12.7432 128.402 13.2613C127.052 13.8129 125.542 13.8165 124.189 13.2714C123.57 13.018 123.007 12.6443 122.532 12.1716C122.057 11.6989 121.68 11.1366 121.422 10.517C121.155 9.87971 121.021 9.19421 121.028 8.50279C121.023 7.80644 121.16 7.1165 121.43 6.47516C121.689 5.85511 122.065 5.29137 122.537 4.81513C123.017 4.33629 123.584 3.95501 124.207 3.69221C124.876 3.41166 125.594 3.27061 126.318 3.27762C127.042 3.27025 127.76 3.40835 128.43 3.68382C129.054 3.94099 129.622 4.31913 130.1 4.79666C130.57 5.26887 130.943 5.82954 131.198 6.44663C131.462 7.08473 131.596 7.76968 131.592 8.46083C131.597 9.15748 131.46 9.84783 131.187 10.4885ZM129.085 7.26406C128.943 6.88536 128.731 6.5369 128.46 6.23682C128.194 5.94144 127.87 5.70385 127.509 5.53856C126.945 5.27941 126.314 5.20642 125.706 5.33005C125.098 5.45368 124.545 5.76758 124.125 6.22675C123.861 6.51919 123.658 6.86155 123.527 7.23385C123.39 7.63089 123.321 8.04875 123.324 8.46922C123.321 8.89744 123.397 9.3225 123.548 9.72306C123.686 10.1037 123.898 10.4533 124.17 10.752C124.44 11.042 124.763 11.2758 125.122 11.4402C125.5 11.6122 125.91 11.6992 126.325 11.6953C126.752 11.7019 127.175 11.6149 127.565 11.4402C127.923 11.2777 128.243 11.0435 128.507 10.752C128.77 10.459 128.973 10.1168 129.103 9.74488C129.242 9.34813 129.312 8.93013 129.309 8.5095C129.311 8.08404 129.235 7.6618 129.085 7.26406Z" fill="#213469"/>
<path d="M142.519 10.3182L144.544 3.49173H146.815L143.569 13.5258H141.543L139.327 6.71613L137.095 13.5258H135.069L131.859 3.49173H134.187L136.176 10.3182L138.37 3.45312H140.304L142.519 10.3182Z" fill="#213469"/>
<path d="M150.317 11.1562C150.843 11.5953 151.51 11.8269 152.194 11.8075C152.698 11.8199 153.198 11.7166 153.656 11.5053C154.108 11.2775 154.52 10.9783 154.877 10.6191L156.213 11.8075C155.743 12.3692 155.165 12.8308 154.515 13.1654C153.781 13.5197 152.973 13.6924 152.159 13.6689C151.473 13.6752 150.792 13.547 150.155 13.2912C149.547 13.0519 148.995 12.6901 148.532 12.2283C148.068 11.7665 147.704 11.2143 147.461 10.6057C147.191 9.93169 147.057 9.21051 147.067 8.48403C147.062 7.79629 147.183 7.11354 147.424 6.46983C147.65 5.86048 147.99 5.30036 148.426 4.81987C148.857 4.34777 149.377 3.96613 149.956 3.69695C150.568 3.41586 151.234 3.27429 151.906 3.28237C152.621 3.26676 153.331 3.41484 153.98 3.71542C154.556 3.99127 155.062 4.39268 155.463 4.89037C155.867 5.39994 156.169 5.98294 156.353 6.60747C156.556 7.27381 156.657 7.96697 156.654 8.66363C156.654 8.76434 156.654 8.86505 156.646 8.96408C156.637 9.06311 156.629 9.17221 156.617 9.28467H149.336C149.477 10.0993 149.803 10.7231 150.317 11.1562ZM154.408 7.77067C154.373 7.41879 154.291 7.07326 154.164 6.74343C154.05 6.43793 153.88 6.15665 153.663 5.91425C153.449 5.68007 153.191 5.4907 152.903 5.35699C152.589 5.215 152.246 5.14451 151.901 5.15053C151.578 5.14115 151.256 5.20094 150.956 5.32593C150.657 5.45093 150.388 5.63829 150.166 5.87564C149.691 6.39994 149.398 7.06486 149.331 7.77067H154.408Z" fill="#213469"/>
<path d="M160.493 13.4562H158.203V3.49097H160.493V5.73512C160.773 5.02472 161.234 4.40039 161.829 3.92402C162.404 3.47082 163.128 3.26325 163.999 3.30129V5.71666H163.868C163.4 5.70996 162.935 5.79314 162.498 5.96172C162.09 6.12131 161.724 6.37282 161.428 6.6969C161.111 7.05393 160.875 7.47526 160.735 7.93227C160.563 8.49074 160.48 9.07323 160.491 9.65777L160.493 13.4562Z" fill="#213469"/>
<path d="M27.7693 27.1758L19.0139 29.4132L0 34.2641V43.9708L19.0206 39.1183L27.7693 36.8842V27.1758Z" fill="#F05D3E"/>
<path d="M19.0206 15.9785L0 20.8327V30.5395L19.0189 25.6869L27.7693 23.4529V13.7461L19.0206 15.9785Z" fill="#F05D3E"/>
<path d="M27.7693 0.316406L19.0172 2.55049L0 7.40303V17.1098L19.0206 12.2572L27.7693 10.0232V0.316406Z" fill="#F05D3E"/>
<path d="M57.6878 2.56965H50.2582V5.96525H56.8445V8.05834H50.2582V11.5832H57.7729V13.6763H47.9688V0.476562H57.6878V2.56965Z" fill="#213469"/>
<path d="M59.6523 2.60167V13.6798H61.9435V0C61.1776 0.869462 60.4138 1.73669 59.6523 2.60167Z" fill="#213469"/>
<path d="M66.8424 11.1641C67.3684 11.6021 68.0349 11.833 68.7177 11.8137C69.2222 11.8266 69.7231 11.7239 70.1822 11.5132C70.6326 11.2843 71.044 10.9852 71.4013 10.627L72.7372 11.8137C72.2671 12.3758 71.6896 12.8376 71.0389 13.1716C70.3056 13.5269 69.498 13.6996 68.6843 13.6751C67.9982 13.6813 67.3176 13.553 66.6804 13.2975C66.0734 13.0576 65.5216 12.6956 65.0587 12.2338C64.5959 11.772 64.2316 11.2201 63.9884 10.6119C63.7178 9.93812 63.5838 9.2168 63.5943 8.49027C63.5901 7.80271 63.7106 7.12015 63.95 6.47607C64.1759 5.86672 64.5161 5.3066 64.952 4.82611C65.3835 4.35485 65.9033 3.97382 66.4816 3.70487C67.0938 3.42301 67.7606 3.2814 68.4338 3.29028C69.1495 3.27395 69.8594 3.42206 70.5095 3.72333C71.0853 3.99806 71.5922 4.39965 71.9924 4.89828C72.3963 5.40737 72.699 5.98975 72.8842 6.61371C73.0863 7.28007 73.1877 7.97321 73.1848 8.66987C73.1848 8.77058 73.1814 8.87128 73.1747 8.97199C73.1747 9.0727 73.1597 9.17845 73.1464 9.29259H65.8654C66.004 10.1016 66.328 10.7294 66.8424 11.1641ZM70.932 7.77858C70.8984 7.42432 70.8163 7.07639 70.6882 6.74463C70.5734 6.43959 70.4036 6.15848 70.1872 5.91545C69.9725 5.68213 69.7144 5.49338 69.4274 5.35987C69.1128 5.21698 68.7706 5.14591 68.4254 5.15173C68.1012 5.14211 67.7787 5.20194 67.4793 5.32725C67.1798 5.45256 66.9103 5.64048 66.6887 5.87852C66.2139 6.40288 65.921 7.06777 65.8537 7.77355L70.932 7.77858Z" fill="#213469"/>
<path d="M81.7046 13.1622C81.0789 13.508 80.2846 13.6809 79.3216 13.6809C78.6192 13.6877 77.923 13.5495 77.2759 13.2747C76.6653 13.0149 76.1114 12.6367 75.6461 12.1618C75.1753 11.6802 74.8034 11.11 74.5519 10.4839C74.3003 9.85778 74.1739 9.18799 74.1799 8.51278C74.1715 7.14075 74.6992 5.82022 75.6494 4.83518C76.1293 4.34005 76.704 3.94779 77.3389 3.6821C77.9738 3.4164 78.6556 3.28278 79.3433 3.28929C80.2818 3.28929 81.0611 3.44595 81.6812 3.75927C82.2944 4.06968 82.8449 4.49201 83.3044 5.00471L81.8967 6.53214C81.5671 6.18374 81.1918 5.88219 80.7811 5.63583C80.3359 5.39147 79.8336 5.27149 79.3266 5.28838C78.9311 5.28419 78.5398 5.37088 78.1827 5.54183C77.8384 5.70675 77.5315 5.94099 77.281 6.23002C77.0257 6.52756 76.8255 6.86864 76.6898 7.23712C76.5439 7.63233 76.4709 8.05096 76.4744 8.47249C76.4708 8.90332 76.5438 9.33132 76.6898 9.7364C76.8254 10.112 77.0324 10.4575 77.2993 10.7536C77.5633 11.0437 77.8824 11.2777 78.2378 11.4418C78.6533 11.6247 79.1044 11.7112 79.5577 11.6949C80.011 11.6787 80.4549 11.56 80.8563 11.3478C81.2793 11.1026 81.6675 10.8011 82.0102 10.4514L83.3796 11.8093C82.9037 12.3547 82.3369 12.8125 81.7046 13.1622Z" fill="#213469"/>
<path d="M90.1117 5.49438V3.55404H87.4398V0.816406H87.4031C86.6516 1.66573 85.9012 2.51617 85.152 3.36773V3.55404H83.8945V5.49774H85.152V10.7548C85.1399 11.226 85.2095 11.6957 85.3574 12.1429C85.4804 12.487 85.6857 12.7954 85.9552 13.0409C86.2211 13.2712 86.5349 13.4387 86.8737 13.531C87.2472 13.6352 87.6333 13.6866 88.0209 13.6838C88.4007 13.6885 88.7795 13.6445 89.1482 13.5529C89.4684 13.4648 89.7768 13.338 90.0666 13.1752V11.3053C89.6306 11.5264 89.1489 11.6414 88.6605 11.641C88.3345 11.662 88.0127 11.5576 87.7604 11.349C87.545 11.1543 87.4398 10.8337 87.4398 10.3922V5.49438H90.1117Z" fill="#213469"/>
<path d="M93.9223 13.6813H91.6328V3.72275H93.9223V5.96691C94.203 5.25651 94.6635 4.63218 95.2582 4.1558C95.8327 3.7082 96.5563 3.50119 97.4292 3.53476V5.94844H97.2989C96.8306 5.94276 96.3655 6.0259 95.9279 6.1935C95.5203 6.35311 95.1547 6.60464 94.8591 6.92869C94.5415 7.28519 94.3045 7.70665 94.1644 8.16406C93.9931 8.72269 93.9108 9.30506 93.9206 9.88956L93.9223 13.6813Z" fill="#213469"/>
<path d="M105.405 4.46914C104.693 3.73284 103.598 3.36469 102.12 3.36469C101.42 3.35171 100.72 3.42842 100.038 3.59297C99.4584 3.74428 98.893 3.9459 98.3481 4.19555L98.9693 6.02679C99.4028 5.84225 99.8494 5.69021 100.305 5.57192C100.797 5.45369 101.302 5.39731 101.808 5.40407C102.596 5.40407 103.2 5.58646 103.62 5.95126C104.04 6.31605 104.249 6.84422 104.248 7.53576V7.7825C103.366 7.48485 102.439 7.34344 101.509 7.36455C100.968 7.36077 100.428 7.42734 99.9028 7.56262C99.4448 7.68008 99.0122 7.88152 98.627 8.15681C98.2729 8.42103 97.9867 8.76627 97.792 9.1639C97.5845 9.60527 97.4821 10.0892 97.4931 10.5772V10.6057C97.4816 11.0665 97.5813 11.5232 97.7837 11.9368C97.9679 12.3092 98.2292 12.6377 98.5501 12.9002C98.8819 13.165 99.2612 13.3633 99.6673 13.4844C100.106 13.6178 100.562 13.6846 101.02 13.6824C101.682 13.7025 102.339 13.5602 102.934 13.2678C103.426 13.0163 103.864 12.6708 104.225 12.2507C104.958 12.9053 105.694 13.5599 106.431 14.2145C106.446 12.0011 106.461 9.78551 106.476 7.56765C106.475 6.23604 106.118 5.20321 105.405 4.46914ZM104.278 9.87223C104.283 10.1705 104.215 10.4655 104.081 10.7316C103.948 10.9903 103.76 11.2161 103.53 11.393C103.277 11.5798 102.995 11.7228 102.695 11.8159C102.357 11.9188 102.006 11.9692 101.653 11.9653C101.172 11.9807 100.698 11.8502 100.292 11.591C100.114 11.471 99.9698 11.307 99.8733 11.1147C99.7768 10.9224 99.7311 10.7084 99.7408 10.4933V10.458C99.7307 10.2249 99.7806 9.99301 99.8856 9.78485C99.9906 9.57669 100.147 9.39925 100.34 9.26965C100.741 8.99214 101.298 8.85394 102.01 8.85506C102.429 8.85297 102.846 8.89062 103.258 8.96752C103.606 9.03024 103.948 9.1252 104.28 9.25118L104.278 9.87223Z" fill="#213469"/>
<path d="M38.0127 17.1078V7.40109L18.9922 2.54688V12.2553L29.2372 14.8687V18.5916L18.9922 15.9782V25.685L38.0127 30.5392V20.8324V20.8308V17.1078Z" fill="#213469"/>
<path d="M18.9922 29.4102V39.1236L19.0323 39.1354L27.7209 41.3443L27.7694 31.6476L19.0824 29.4303L18.9922 29.4102Z" fill="#213469"/>
<path d="M50.0573 41.3701H48.0016V43.2853H50.2928V43.861H47.3203V38.5469H50.1742V39.1226H48.0033V40.8011H50.059L50.0573 41.3701Z" fill="#6D6E70"/>
<path d="M52.2544 41.0771C52.2544 40.6826 52.2544 40.3587 52.2227 40.0448H52.8339L52.8739 40.6742H52.889C53.0133 40.4513 53.1958 40.2667 53.4168 40.1404C53.6378 40.0141 53.8889 39.9509 54.1431 39.9575C54.6691 39.9575 55.479 40.2731 55.479 41.5806V43.86H54.7877V41.6578C54.7877 41.0435 54.5606 40.5315 53.9093 40.5315C53.7001 40.5349 53.4974 40.6055 53.3309 40.7329C53.1645 40.8604 53.0429 41.038 52.9841 41.2399C52.9511 41.3446 52.9353 41.454 52.9374 41.5638V43.8583H52.2477L52.2544 41.0771Z" fill="#6D6E70"/>
<path d="M58.0932 42.0742C58.1082 43.0125 58.7044 43.3985 59.3941 43.3985C59.7548 43.41 60.1136 43.343 60.4462 43.2021L60.5631 43.7057C60.1634 43.8726 59.7333 43.9533 59.3006 43.9423C58.1316 43.9423 57.4336 43.1685 57.4336 42.0188C57.4336 40.869 58.1016 39.9609 59.2138 39.9609C60.4528 39.9609 60.7835 41.057 60.7835 41.7586C60.7817 41.8664 60.7739 41.974 60.7601 42.0809L58.0932 42.0742ZM60.1155 41.5706C60.1155 41.1292 59.9352 40.4443 59.1586 40.4443C58.4606 40.4443 58.1567 41.0906 58.0999 41.5706H60.1155Z" fill="#6D6E70"/>
<path d="M62.7349 41.2339C62.7349 40.784 62.7349 40.3946 62.7031 40.0438H63.3077L63.331 40.7924H63.3628C63.4267 40.5586 63.5629 40.3514 63.7517 40.2005C63.9405 40.0496 64.1721 39.963 64.4131 39.9532C64.479 39.9525 64.5447 39.9604 64.6085 39.9767V40.6313C64.5313 40.6139 64.4522 40.606 64.3731 40.6078C63.8871 40.6078 63.5381 40.977 63.4479 41.4974C63.4288 41.6043 63.4181 41.7127 63.4162 41.8213V43.8557H62.7349V41.2339Z" fill="#6D6E70"/>
<path d="M69.6066 40.0426C69.5916 40.3178 69.5749 40.625 69.5749 41.0899V43.3056C69.5749 44.1801 69.4079 44.7172 69.0338 45.0478C68.6598 45.3785 68.1321 45.5044 67.6545 45.5044C67.2124 45.5162 66.7755 45.4071 66.3903 45.1888L66.5573 44.6618C66.8944 44.862 67.2797 44.9654 67.6712 44.9606C68.3759 44.9606 68.8936 44.5913 68.8936 43.6278V43.2032H68.8785C68.7513 43.4072 68.5725 43.5737 68.3605 43.6858C68.1484 43.7978 67.9106 43.8514 67.6712 43.841C66.7293 43.841 66.0547 43.037 66.0547 41.9812C66.0547 40.6888 66.8897 39.9553 67.7647 39.9553C68.0041 39.9413 68.2426 39.996 68.4522 40.1131C68.6619 40.2302 68.8341 40.4048 68.9487 40.6166H68.9654L68.9954 40.0426H69.6066ZM68.8936 41.5532C68.8975 41.4465 68.884 41.3399 68.8535 41.2377C68.7941 41.0263 68.6677 40.8403 68.4935 40.7079C68.3192 40.5755 68.1067 40.5039 67.8883 40.5041C67.2303 40.5041 66.7594 41.0631 66.7594 41.946C66.7594 42.6963 67.1351 43.319 67.8816 43.319C68.0952 43.3173 68.3029 43.2477 68.4747 43.1202C68.6466 42.9926 68.774 42.8137 68.8385 42.609C68.8756 42.4889 68.8942 42.3638 68.8936 42.238V41.5532Z" fill="#6D6E70"/>
<path d="M72.5388 38.9724C72.5413 39.0303 72.5316 39.0881 72.5102 39.1419C72.4888 39.1958 72.4563 39.2444 72.4147 39.2846C72.3731 39.3248 72.3235 39.3556 72.2692 39.375C72.2149 39.3944 72.157 39.4019 72.0996 39.3971C72.0442 39.3978 71.9893 39.3872 71.9381 39.366C71.8869 39.3449 71.8405 39.3135 71.8016 39.2738C71.7628 39.2342 71.7323 39.187 71.7121 39.1352C71.6918 39.0834 71.6822 39.0281 71.6838 38.9724C71.6821 38.915 71.6922 38.8578 71.7134 38.8044C71.7346 38.751 71.7664 38.7025 71.8069 38.662C71.8475 38.6214 71.8958 38.5896 71.949 38.5685C72.0022 38.5474 72.0591 38.5375 72.1163 38.5394C72.1731 38.5372 72.2297 38.5469 72.2825 38.568C72.3353 38.5891 72.3831 38.6211 72.4229 38.6619C72.4627 38.7026 72.4936 38.7513 72.5135 38.8048C72.5335 38.8583 72.5421 38.9154 72.5388 38.9724ZM71.7706 43.8602V40.045H72.4603V43.8602H71.7706Z" fill="#6D6E70"/>
<path d="M74.6062 43.1496C74.8797 43.3214 75.1939 43.4165 75.5163 43.4249C76.0173 43.4249 76.2527 43.1731 76.2527 42.8576C76.2527 42.542 76.0574 42.354 75.548 42.1559C74.865 41.9126 74.5461 41.5332 74.5461 41.0767C74.5461 40.4623 75.0471 39.9571 75.857 39.9571C76.1832 39.9542 76.5047 40.0357 76.7905 40.1938L76.6235 40.6973C76.3899 40.5532 76.1211 40.477 75.847 40.4774C75.4395 40.4774 75.2124 40.7141 75.2124 40.9978C75.2124 41.3133 75.4395 41.4543 75.9338 41.644C76.6018 41.8958 76.9358 42.2281 76.9358 42.7955C76.9358 43.4669 76.4181 43.9385 75.5146 43.9385C75.1431 43.9456 74.7761 43.856 74.4492 43.6783L74.6062 43.1496Z" fill="#6D6E70"/>
<path d="M79.2924 42.0742C79.3075 43.0125 79.9036 43.3985 80.5933 43.3985C80.954 43.41 81.3129 43.343 81.6454 43.2021L81.7623 43.7057C81.3626 43.8726 80.9325 43.9533 80.4998 43.9423C79.3309 43.9423 78.6328 43.1685 78.6328 42.0188C78.6328 40.869 79.3008 39.9609 80.413 39.9609C81.6537 39.9609 81.9827 41.057 81.9827 41.7586C81.9809 41.8664 81.9731 41.974 81.9593 42.0809L79.2924 42.0742ZM81.3164 41.5706C81.3164 41.1292 81.1344 40.4443 80.3595 40.4443C79.6615 40.4443 79.3576 41.0906 79.3008 41.5706H81.3164Z" fill="#6D6E70"/>
<path d="M87.5744 42.1903L87.025 43.8688H86.3203L88.1155 38.5547H88.9388L90.744 43.8688H90.0142L89.4498 42.1903H87.5744ZM89.3078 41.6549L88.7901 40.1258C88.6732 39.7783 88.5948 39.4544 88.5163 39.1556H88.4996C88.4211 39.4712 88.3326 39.7934 88.2341 40.1174L87.7164 41.6549H89.3078Z" fill="#6D6E70"/>
<path d="M95.375 38.6103C95.8078 38.5396 96.2457 38.5054 96.6842 38.5079C97.3522 38.5079 97.8532 38.6657 98.1671 38.9494C98.3203 39.0894 98.4411 39.2615 98.521 39.4534C98.6009 39.6454 98.638 39.8526 98.6297 40.0606C98.6397 40.2674 98.6088 40.4741 98.5389 40.6689C98.469 40.8636 98.3613 41.0425 98.2222 41.1952C97.8615 41.5813 97.2737 41.7793 96.6057 41.7793C96.422 41.785 96.2382 41.7693 96.058 41.7323V43.8607H95.375V38.6103ZM96.058 41.1717C96.243 41.2142 96.4327 41.2328 96.6224 41.2271C97.4457 41.2271 97.9467 40.826 97.9467 40.0925C97.9467 39.3908 97.4457 39.0518 96.7009 39.0518C96.4852 39.0455 96.2695 39.0641 96.058 39.1072V41.1717Z" fill="#6D6E70"/>
<path d="M103.863 41.9192C103.863 43.3308 102.889 43.9451 101.973 43.9451C100.944 43.9451 100.152 43.1881 100.152 41.983C100.152 40.7056 100.987 39.957 102.034 39.957C103.125 39.957 103.863 40.7526 103.863 41.9192ZM100.857 41.9595C100.857 42.7987 101.336 43.4248 102.009 43.4248C102.682 43.4248 103.163 42.8021 103.163 41.9427C103.163 41.2965 102.841 40.4774 102.026 40.4774C101.211 40.4774 100.85 41.2344 100.85 41.9595H100.857Z" fill="#6D6E70"/>
<path d="M106.04 40.043L106.541 41.9816C106.651 42.408 106.753 42.8007 106.823 43.1952H106.848C106.933 42.8091 107.059 42.3996 107.182 41.99L107.802 40.043H108.383L108.971 41.9497C109.113 42.408 109.223 42.8091 109.305 43.1952H109.328C109.403 42.7779 109.5 42.3649 109.619 41.9581L110.16 40.043H110.843L109.619 43.8582H108.991L108.411 42.037C108.279 41.6252 108.167 41.2067 108.077 40.7832H108.061C107.971 41.2098 107.856 41.6307 107.717 42.0437L107.104 43.8582H106.478L105.332 40.043H106.04Z" fill="#6D6E70"/>
<path d="M112.953 42.0742C112.968 43.0125 113.564 43.3985 114.253 43.3985C114.614 43.41 114.973 43.343 115.306 43.2021L115.422 43.7057C115.023 43.8722 114.593 43.9529 114.16 43.9423C112.991 43.9423 112.293 43.1685 112.293 42.0188C112.293 40.869 112.961 39.9609 114.073 39.9609C115.312 39.9609 115.643 41.057 115.643 41.7586C115.642 41.8665 115.633 41.9741 115.618 42.0809L112.953 42.0742ZM114.975 41.5706C114.975 41.1292 114.795 40.4443 114.018 40.4443C113.32 40.4443 113.016 41.0906 112.959 41.5706H114.975Z" fill="#6D6E70"/>
<path d="M117.594 41.2339C117.594 40.784 117.586 40.3946 117.562 40.0438H118.167L118.19 40.7924H118.22C118.285 40.5586 118.422 40.3514 118.611 40.2006C118.8 40.0498 119.031 39.9632 119.273 39.9532C119.338 39.9525 119.404 39.9604 119.468 39.9767V40.6313C119.391 40.6139 119.312 40.606 119.232 40.6078C118.746 40.6078 118.397 40.977 118.307 41.4974C118.288 41.6043 118.278 41.7127 118.276 41.8213V43.8557H117.594V41.2339Z" fill="#6D6E70"/>
<path d="M121.56 43.8572V40.569H121.027V40.0419H121.56V39.859C121.56 39.3235 121.677 38.8351 121.999 38.5279C122.25 38.2935 122.582 38.1659 122.924 38.1721C123.126 38.1711 123.325 38.2087 123.512 38.2829L123.419 38.82C123.281 38.758 123.131 38.7281 122.98 38.7327C122.392 38.7327 122.243 39.253 122.243 39.8355V40.0419H123.16V40.569H122.24V43.8572H121.56Z" fill="#6D6E70"/>
<path d="M128.055 42.8175C128.055 43.212 128.055 43.5577 128.085 43.8582H127.474L127.436 43.2355H127.419C127.291 43.4547 127.107 43.6358 126.887 43.7602C126.667 43.8847 126.417 43.948 126.165 43.9438C125.569 43.9438 124.855 43.6081 124.855 42.2653V40.043H125.545V42.1596C125.545 42.8847 125.764 43.3748 126.392 43.3748C126.588 43.3709 126.779 43.3091 126.941 43.1968C127.103 43.0846 127.229 42.927 127.302 42.7437C127.343 42.6296 127.364 42.5092 127.364 42.3878V40.043H128.055V42.8175Z" fill="#6D6E70"/>
<path d="M130.297 38.2617H130.987V43.8595H130.297V38.2617Z" fill="#6D6E70"/>
<path d="M136.032 38.5469H138.88V39.1226H136.709V40.8884H138.713V41.4557H136.709V43.861H136.027L136.032 38.5469Z" fill="#6D6E70"/>
<path d="M143.825 42.8175C143.825 43.212 143.825 43.5577 143.856 43.8582H143.245L143.205 43.2355H143.19C143.062 43.4547 142.878 43.6357 142.657 43.7602C142.437 43.8846 142.187 43.948 141.934 43.9438C141.338 43.9438 140.625 43.6081 140.625 42.2653V40.043H141.315V42.1596C141.315 42.8847 141.535 43.3748 142.161 43.3748C142.29 43.3748 142.417 43.3492 142.536 43.2995C142.655 43.2498 142.762 43.177 142.853 43.0852C142.943 42.9934 143.015 42.8846 143.063 42.7649C143.112 42.6452 143.136 42.517 143.135 42.3878V40.043H143.825V42.8175Z" fill="#6D6E70"/>
<path d="M146.903 38.9492V40.0453H147.892V40.5723H146.903V42.6302C146.903 43.1035 147.037 43.3721 147.421 43.3721C147.556 43.3736 147.691 43.3572 147.822 43.3234L147.852 43.8437C147.656 43.9136 147.448 43.946 147.24 43.9394C147.103 43.9479 146.965 43.9262 146.836 43.8758C146.707 43.8253 146.591 43.7474 146.496 43.6473C146.299 43.4426 146.228 43.1035 146.228 42.6537V40.5723H145.641V40.0453H146.228V39.1305L146.903 38.9492Z" fill="#6D6E70"/>
<path d="M152.939 42.8175C152.939 43.212 152.947 43.5577 152.971 43.8582H152.36L152.319 43.2355H152.299C152.171 43.4547 151.987 43.6357 151.767 43.7602C151.546 43.8846 151.297 43.948 151.044 43.9438C150.447 43.9438 149.734 43.6081 149.734 42.2653V40.043H150.424V42.1596C150.424 42.8847 150.644 43.3748 151.272 43.3748C151.401 43.3746 151.528 43.3488 151.646 43.299C151.765 43.2492 151.872 43.1763 151.963 43.0846C152.053 42.9929 152.124 42.8841 152.173 42.7645C152.221 42.6449 152.245 42.5169 152.244 42.3878V40.043H152.934L152.939 42.8175Z" fill="#6D6E70"/>
<path d="M155.184 41.2338C155.184 40.784 155.184 40.3946 155.152 40.0438H155.757L155.78 40.7924H155.812C155.876 40.5586 156.012 40.3513 156.201 40.2005C156.39 40.0496 156.621 39.963 156.862 39.9532C156.929 39.9526 156.995 39.9605 157.059 39.9767V40.6313C156.982 40.6141 156.903 40.6062 156.824 40.6078C156.338 40.6078 155.989 40.977 155.899 41.4974C155.879 41.6042 155.868 41.7126 155.867 41.8213V43.8557H155.184V41.2338Z" fill="#6D6E70"/>
<path d="M159.148 42.0742C159.163 43.0125 159.759 43.3985 160.449 43.3985C160.809 43.41 161.168 43.343 161.501 43.2021L161.618 43.7057C161.218 43.8724 160.788 43.9531 160.355 43.9423C159.186 43.9423 158.488 43.1685 158.488 42.0188C158.488 40.869 159.156 39.9609 160.268 39.9609C161.508 39.9609 161.838 41.057 161.838 41.7586C161.837 41.8665 161.829 41.9741 161.813 42.0809L159.148 42.0742ZM161.17 41.5706C161.17 41.1292 160.99 40.4443 160.213 40.4443C159.515 40.4443 159.211 41.0906 159.155 41.5706H161.17Z" fill="#6D6E70"/>
<path d="M57.4564 19.6064H50.0954V22.9634H56.6081V25.0397H50.0954V28.5293H57.5433V30.6023H47.8359V17.5352H57.4564V19.6064Z" fill="#213469"/>
<path d="M62.2895 30.603H60.0234V20.7469L62.2895 19.7969V22.2928C62.4476 22.0554 62.624 21.8309 62.8172 21.6214C63.0153 21.4082 63.2398 21.2214 63.4852 21.0658C63.745 20.8999 64.0258 20.7701 64.3202 20.6798C64.654 20.5807 65.0008 20.5326 65.3489 20.5371C66.4622 20.5371 67.3199 20.8795 67.9222 21.5643C68.5245 22.2492 68.8273 23.1701 68.8307 24.3271V30.5997H66.5612V25.0153C66.5612 24.2466 66.3792 23.6524 66.0168 23.2378C65.6545 22.8232 65.1435 22.6134 64.4805 22.6134C64.1864 22.6021 63.8933 22.6536 63.6204 22.7644C63.3476 22.8752 63.1012 23.0428 62.8974 23.2563C62.4922 23.6837 62.2895 24.2824 62.2895 25.0523V30.603Z" fill="#213469"/>
<path d="M79.8045 32.4131C78.8894 33.2222 77.5897 33.6267 75.9053 33.6267C74.3638 33.6522 72.8458 33.2453 71.5217 32.4517L72.3566 30.7531C72.8684 31.0735 73.4167 31.3305 73.9898 31.5185C74.5902 31.7098 75.217 31.8044 75.8468 31.7988C76.8488 31.7988 77.6169 31.5426 78.1513 31.0301C78.6857 30.5176 78.9518 29.7611 78.9495 28.7607V27.9903C78.5574 28.5154 78.0722 28.9632 77.5184 29.3113C76.9041 29.6668 76.2027 29.8413 75.4944 29.8148C74.9236 29.8168 74.3573 29.712 73.8245 29.506C73.2954 29.3029 72.8122 28.9953 72.4034 28.6013C71.9784 28.1875 71.6405 27.692 71.4098 27.1443C70.9155 25.8851 70.9155 24.4842 71.4098 23.225C71.6413 22.6778 71.9791 22.1825 72.4034 21.7681C72.8161 21.3722 73.3024 21.0619 73.8345 20.855C74.3661 20.6436 74.9328 20.5354 75.5045 20.5361C76.3339 20.5361 77.018 20.7039 77.5568 21.0396C78.0804 21.3596 78.5481 21.764 78.9412 22.2364V20.7459L81.1873 19.5391V28.5862C81.1817 30.3285 80.7208 31.6041 79.8045 32.4131ZM78.7375 24.066C78.5911 23.7389 78.379 23.4457 78.1146 23.2049C77.8465 22.9645 77.5346 22.7786 77.1961 22.6577C76.8418 22.5281 76.4676 22.4622 76.0906 22.463C75.7166 22.4593 75.3452 22.5253 74.9951 22.6577C74.6691 22.7818 74.3698 22.9675 74.1134 23.2049C73.8568 23.4431 73.6541 23.7339 73.5189 24.0576C73.3723 24.4098 73.2995 24.7887 73.3052 25.1704C73.2997 25.5525 73.3754 25.9313 73.5273 26.2816C73.6688 26.6047 73.8706 26.8975 74.1218 27.1443C74.3741 27.3891 74.6744 27.5783 75.0035 27.6999C75.3509 27.8315 75.7194 27.8975 76.0906 27.8946C76.4677 27.8963 76.8421 27.8303 77.1961 27.6999C77.5363 27.5787 77.8487 27.3897 78.1146 27.1443C78.3748 26.903 78.5863 26.6135 78.7375 26.2917C78.8956 25.9461 78.9749 25.5693 78.9696 25.1889C78.9736 24.8022 78.8944 24.4191 78.7375 24.066Z" fill="#213469"/>
<path d="M84.0195 19.2327L86.4526 17.0859V19.2327H84.0195ZM84.1114 30.6012V20.7451H86.3775V30.6012H84.1114Z" fill="#213469"/>
<path d="M91.563 30.6027H89.2969V21.3475L91.563 20.1406V22.2992C91.7215 22.0621 91.8979 21.8377 92.0907 21.6278C92.5011 21.1871 93.0193 20.8624 93.5936 20.6861C93.9275 20.5873 94.2742 20.5392 94.6223 20.5435C95.7356 20.5435 96.5934 20.8859 97.1957 21.5707C97.798 22.2555 98.1008 23.1765 98.1041 24.3335V30.6061H95.838V25.015C95.838 24.2462 95.6577 23.652 95.2953 23.2375C94.9329 22.8229 94.4202 22.613 93.7573 22.613C93.4632 22.6021 93.1702 22.6537 92.8974 22.7645C92.6246 22.8753 92.3781 23.0427 92.1742 23.2559C91.7689 23.6834 91.5663 24.282 91.5663 25.0519L91.563 30.6027Z" fill="#213469"/>
<path d="M103.481 28.3367C104.002 28.7705 104.662 28.999 105.338 28.9796C105.837 28.9921 106.333 28.8899 106.787 28.6808C107.233 28.4549 107.641 28.1592 107.995 27.8046L109.312 28.9796C108.847 29.5352 108.276 29.9918 107.632 30.3224C106.904 30.6759 106.102 30.8486 105.294 30.8259C104.617 30.8314 103.946 30.7049 103.317 30.4533C102.715 30.2166 102.167 29.8584 101.707 29.4009C101.248 28.9433 100.886 28.3961 100.645 27.7929C100.377 27.126 100.244 26.4122 100.254 25.6931C100.249 25.0112 100.369 24.3342 100.607 23.6956C100.834 23.0917 101.174 22.5373 101.609 22.0625C102.036 21.5956 102.551 21.218 103.123 20.9513C103.729 20.6723 104.388 20.5319 105.054 20.5401C105.761 20.5253 106.463 20.6722 107.106 20.9698C107.675 21.2417 108.176 21.6373 108.574 22.1279C108.975 22.6315 109.274 23.2083 109.456 23.8266C109.656 24.4858 109.756 25.1716 109.753 25.8609C109.753 25.9616 109.753 26.0607 109.753 26.1597C109.753 26.2587 109.736 26.3645 109.725 26.4769H102.519C102.652 27.2871 102.973 27.907 103.481 28.3367ZM107.53 24.9797C107.495 24.6313 107.414 24.2892 107.288 23.9625C107.174 23.6599 107.004 23.3816 106.787 23.1417C106.574 22.9106 106.318 22.7236 106.034 22.5912C105.72 22.4478 105.377 22.3772 105.032 22.3847C104.712 22.3754 104.393 22.4348 104.097 22.559C103.801 22.6831 103.534 22.8692 103.315 23.1048C102.842 23.6221 102.549 24.2802 102.48 24.9797H107.53Z" fill="#213469"/>
<path d="M114.699 28.3367C115.221 28.7708 115.881 28.9993 116.558 28.9796C117.057 28.9919 117.552 28.8898 118.006 28.6808C118.453 28.4558 118.86 28.1599 119.213 27.8046L120.533 28.9796C120.067 29.5353 119.495 29.9918 118.851 30.3224C118.123 30.6761 117.321 30.8488 116.513 30.8259C115.836 30.8313 115.165 30.7047 114.536 30.4533C113.933 30.2166 113.386 29.8584 112.926 29.4009C112.467 28.9433 112.105 28.3961 111.864 27.7929C111.596 27.126 111.463 26.4122 111.473 25.6931C111.469 25.0111 111.589 24.3341 111.827 23.6956C112.053 23.0911 112.393 22.5364 112.829 22.0625C113.255 21.5952 113.77 21.2176 114.342 20.9513C114.948 20.6724 115.608 20.5319 116.274 20.5401C116.982 20.5253 117.684 20.6722 118.327 20.9698C118.895 21.2412 119.396 21.6369 119.793 22.1279C120.193 22.6315 120.493 23.2083 120.675 23.8266C120.875 24.4858 120.975 25.1716 120.972 25.8609C120.972 25.9616 120.972 26.0607 120.972 26.1597C120.972 26.2587 120.957 26.3645 120.943 26.4769H113.738C113.872 27.2871 114.193 27.907 114.699 28.3367ZM118.749 24.9797C118.715 24.6312 118.633 24.289 118.507 23.9625C118.392 23.6599 118.222 23.3816 118.006 23.1417C117.794 22.9107 117.538 22.7236 117.254 22.5912C116.94 22.4481 116.598 22.3775 116.253 22.3847C115.932 22.3753 115.612 22.4346 115.316 22.5588C115.02 22.6829 114.753 22.8691 114.534 23.1048C114.061 23.6221 113.768 24.2802 113.699 24.9797H118.749Z" fill="#213469"/>
<path d="M125.512 30.6017H123.246V20.7456H125.512V22.9662C125.788 22.2633 126.243 21.6456 126.831 21.1753C127.399 20.7271 128.119 20.5206 128.986 20.5593V22.9478H128.855C128.392 22.9416 127.932 23.0242 127.499 23.1911C127.096 23.3491 126.734 23.5977 126.441 23.9179C126.127 24.2713 125.893 24.6887 125.754 25.1415C125.584 25.6945 125.502 26.2714 125.512 26.8503V30.6017Z" fill="#213469"/>
<path d="M130.949 19.2327L133.382 17.0859V19.2327H130.949ZM131.043 30.6012V20.7451H133.309V30.6012H131.043Z" fill="#213469"/>
<path d="M138.493 30.6052H136.227V22.0297L138.493 20.2656V22.2949C138.651 22.0575 138.827 21.833 139.02 21.6235C139.218 21.4103 139.443 21.2236 139.688 21.068C139.948 20.9021 140.229 20.7722 140.523 20.6819C140.857 20.5828 141.204 20.5347 141.552 20.5392C142.665 20.5392 143.523 20.8816 144.125 21.5665C144.728 22.2513 145.03 23.1722 145.034 24.3293V30.6018H142.768V25.0175C142.768 24.2487 142.586 23.6545 142.223 23.2399C141.861 22.8253 141.35 22.6155 140.687 22.6155C140.393 22.6043 140.1 22.6557 139.827 22.7665C139.554 22.8773 139.308 23.045 139.104 23.2584C138.698 23.6858 138.495 24.2845 138.496 25.0544L138.493 30.6052Z" fill="#213469"/>
<path d="M156.004 32.4164C155.089 33.2254 153.789 33.6299 152.104 33.6299C150.563 33.6554 149.045 33.2486 147.721 32.455L148.556 30.7563C149.068 31.0767 149.616 31.3337 150.189 31.5217C150.789 31.7131 151.416 31.8077 152.046 31.8021C153.048 31.8021 153.816 31.5458 154.351 31.0333C154.885 30.5208 155.151 29.7644 155.149 28.764V27.9935C154.757 28.5186 154.271 28.9664 153.718 29.3145C153.103 29.67 152.402 29.8445 151.694 29.8181C151.123 29.82 150.557 29.7153 150.024 29.5092C149.495 29.3061 149.011 28.9985 148.603 28.6045C148.178 28.1907 147.84 27.6953 147.609 27.1476C147.115 25.8884 147.115 24.4875 147.609 23.2283C147.841 22.6811 148.178 22.1858 148.603 21.7714C149.015 21.3754 149.502 21.0652 150.034 20.8582C150.565 20.6469 151.132 20.5387 151.704 20.5393C152.533 20.5393 153.217 20.7072 153.756 21.0429C154.28 21.3629 154.747 21.7672 155.14 22.2397V20.7491L157.386 19.1562V28.5894C157.381 30.3317 156.92 31.6074 156.004 32.4164ZM154.937 24.0692C154.79 23.7421 154.578 23.4489 154.314 23.2081C154.046 22.9677 153.734 22.7819 153.395 22.661C153.041 22.5313 152.667 22.4654 152.29 22.4663C151.916 22.4625 151.544 22.5286 151.194 22.661C150.868 22.785 150.569 22.9707 150.313 23.2081C150.056 23.4464 149.853 23.7371 149.718 24.0608C149.572 24.4131 149.499 24.7919 149.504 25.1737C149.499 25.5557 149.575 25.9345 149.726 26.2848C149.868 26.6079 150.07 26.9008 150.321 27.1476C150.573 27.3923 150.874 27.5815 151.203 27.7032C151.55 27.8347 151.919 27.9007 152.29 27.8979C152.667 27.8995 153.041 27.8336 153.395 27.7032C153.736 27.5819 154.048 27.3929 154.314 27.1476C154.574 26.9062 154.785 26.6167 154.937 26.2949C155.095 25.9493 155.174 25.5725 155.169 25.1921C155.173 24.8054 155.094 24.4224 154.937 24.0692Z" fill="#213469"/>
</svg>
